Patient4_TMGait_0pt6_01_left_11_EMG.mot
version=1
nRows=33
nColumns=33
inDegrees=no
endheader
time	1LAddLong	2LGlutMax	3LGlutMed	4LIliopsoas	5LSemiMemb	6LBicFemLong	7LRecFem	8LVastMed	9LVastLat	10LGasMed	11LTibAnt	12lTibPost	13LPeroneusLong	14LSol	15LExtDigLong	16LFlexDigLong	17RAddLong	18RGlutMax	19RGlutMed	20RIliopsoas	21RSemiMemb	22RBicFemLong	23RRecFem	24RVastMed	25RVastLat	26RGasMed	27RTibAnt	28RTibPost	29RPeroneusLong	30RSol	31RExtDigLong	32RFlexDigLong
14.598	0.015411	0.13199	0.028839	0.023651	0.0177	0.023651	-0.032349	0.005646	0.096588	-0.028992	-0.001984	-0.001526	0.026855	0.016327	0.002289	-0.001831	-0.002441	-0.22171	-0.055847	-0.017548	0.000458	-0.062866	-0.17395	-0.088196	-0.76874	-0.006409	0.11887	-0.000916	-0.18753	0.14725	-0.001831	-0.013123
14.599	-0.007019	0.14877	0.063019	0.012054	-0.020599	0.016785	-0.037079	0.00412	0.094604	-0.035095	0.00351	0.003052	0.018921	0.027618	0.011597	0.014191	0.01358	-0.22934	-0.1297	-0.036316	-0.006561	-0.084076	0.018616	0.10498	-0.74799	-0.009155	-0.25055	-0.002594	-0.45242	0.030823	-0.002594	-0.002899
14.6	-0.00946	0.14313	0.033417	0.003204	-0.056763	-0.024261	-0.028381	0.004883	0.075226	-0.02655	0.001526	-0.000763	-0.043945	-0.013123	0.011292	0.007324	0.019379	-0.22995	-0.024567	-0.007172	-0.007019	-0.072937	-0.006409	0.045624	-0.49957	-0.021057	-0.35492	0.000458	-0.82932	0.18494	-0.002289	-0.006714
14.601	0	0.15854	0.025177	0.00885	0.006256	-0.032501	-0.029602	0.005188	0.068359	-0.050201	-0.005493	0.003967	-0.029144	-0.015869	0.006866	0.006866	0.002899	-0.21027	0.26321	-0.042114	0.018463	-0.029755	-0.0914	-0.09964	-0.30548	-0.014648	0.16327	-0.005951	-0.7074	0.13657	-0.002136	-0.014648
14.602	-0.008392	0.13016	0.03891	0.007782	0.012054	-0.019379	-0.049896	-0.001068	0.070953	-0.036469	-0.011749	0.000153	0.055695	-0.021362	0.008392	0.00824	-0.016327	-0.19959	0.17151	-0.11475	0.021057	-0.004883	-0.40009	-0.14771	0.168	-0.011444	0.37186	0.001984	-0.13565	0.15091	-0.002441	-0.002289
14.603	-0.009003	0.13092	-0.001068	-0.011749	0.028381	-0.010376	-0.028992	0.001984	0.063171	-0.03952	-0.006256	-0.009308	0.013275	-0.019073	0.005493	0.011597	-0.009155	-0.21454	0.048676	-0.083771	0.020752	0.015717	-0.39825	-0.00412	0.21988	-0.002899	-0.11643	-0.001373	0.50095	0.18478	-0.002441	0.00061
14.604	0.028534	0.15488	-0.010834	-0.002899	0.038757	-0.016022	-0.036469	-0.002136	0.072327	-0.061951	-0.002136	0.001831	0.027771	-0.039825	0.003357	0.002136	-0.002899	-0.20294	0.29572	-0.075989	0.012512	0.014191	0.010681	-0.10605	0.11475	-0.006714	-0.14587	-0.000305	0.54855	0.12207	-0.001526	0.005951
14.605	-0.030212	0.15839	-0.031586	0.011139	0.025787	-0.006104	-0.037842	-0.001068	0.065308	-0.071869	0.002289	0.010681	0.011749	-0.067902	0.006561	0.009613	0.001984	-0.19791	0.15045	0.031281	0.013885	0.023193	0.28458	-0.10178	0.10925	-0.011749	0.062561	0.001068	-0.8551	0.000763	0.000305	-0.002899
14.606	0.003967	0.14496	-0.034332	0.019989	0.00885	0.029449	-0.071411	0.003204	0.068512	-0.11154	0.00351	0.002899	-0.052643	-0.09491	-0.000916	0.00061	-0.015259	-0.20081	-0.095367	0.066071	0.024567	0.03952	0.14328	0.25391	0.28717	-0.013275	0.13077	0.000763	-0.66132	-0.066528	-0.000916	-0.001678
14.607	-0.001831	0.13046	-0.02594	0.010071	-0.002594	0.054779	-0.041962	0.005188	0.054626	-0.11063	0.002289	0.002899	-0.047302	-0.10834	0.004272	0.015106	-0.032043	-0.30731	-0.14725	-0.033875	0.037384	0.06134	0.34027	0.25864	-0.112	-0.010223	-0.15411	0.001068	0.59204	-0.10925	-0.003815	-0.009918
14.608	-0.002289	0.14114	-0.013885	0.005951	0.005493	0.075226	-0.05127	0.005035	0.048065	-0.086365	0.00351	0.003967	-0.004272	-0.085449	0.007324	0.011902	-0.021362	-0.29984	-0.02243	-0.098572	0.016327	0.046997	0.12329	-0.077667	-0.49027	0.005493	-0.29083	-0.002289	1.6434	-0.18204	-0.010223	-0.006866
14.609	-0.016479	0.14297	-0.016785	0.008087	0.002289	0.062866	-0.055237	0.007629	0.053864	-0.021973	-0.011902	0.007019	0.038147	-0.05661	0.00412	0.012207	-0.012054	-0.11643	0.23621	-0.093231	0.008087	0.019989	-0.35065	-0.20798	-0.76935	0.01709	-0.21484	0.001984	-0.016022	-0.31326	-0.00061	-0.000153
14.61	-0.000305	0.12131	-0.036316	0.010376	-0.08667	0.022125	-0.058594	0.002594	0.059509	0.02655	-0.009308	0.002289	0.088196	-0.028992	0.008087	0.010834	-0.030212	-0.22324	0.037231	0.091553	0.016327	0.06073	-0.43732	-0.042419	-0.48492	0.015411	-0.11231	0.003815	-1.0577	-0.33875	-0.003052	0.001373
14.611	0.010071	0.095215	-0.048523	0.012665	-0.087585	-0.025482	-0.070648	-0.000305	0.054016	0.040588	-0.00473	-0.003357	0.16037	-0.053406	-0.007935	0.009613	0.000763	-0.25101	-0.1471	0.22186	0.020447	0.021667	-0.41199	0.15579	-0.19089	0.013275	-0.12802	0.000916	-1.0175	-0.20584	-0.001678	-0.002899
14.612	0.014954	0.062256	-0.053711	0.013885	-0.006409	-0.039825	-0.081024	-0.005341	0.050659	0.032043	-0.014038	0.002747	0.18585	-0.002594	-0.005341	0.017242	0.010529	-0.2269	0.058136	0.16953	0.006714	0.003662	-0.4039	-0.03067	-0.16144	0.005798	-0.035095	-0.000153	-1.7509	-0.19363	-0.003204	-0.00946
14.613	0.019073	0.055695	-0.049133	0.012054	0.063629	-0.044098	-0.064697	0.001831	0.04364	0.025635	-0.007477	0.002441	0.11719	0.051727	-0.003052	0.014343	0.009308	-0.10666	-0.049744	0.091553	0.001678	-0.005798	-0.67871	-0.18356	-0.066833	-0.009766	0.050049	-0.001373	-1.4519	0.064087	-0.001526	-0.000305
14.614	0.012665	0.067444	-0.02533	-0.004425	0.064087	-0.060272	-0.080719	0.000153	0.036011	-0.007629	0.016174	0.006104	0.058594	-0.10681	-0.024414	0.023499	0.002289	-0.081329	0.048981	-0.03952	0.003052	0.004578	-0.53711	-0.14572	0.025787	-0.016479	0.023346	-0.003967	0.70297	0.30746	-0.001068	-0.018768
14.615	0.022583	0.084076	-0.054474	0.007019	0.022125	-0.038605	-0.077057	0.000153	0.039673	-0.095062	0.005646	0.004578	0.053253	-0.21912	-0.011597	0.001526	-0.001526	-0.026245	0.096893	0.024872	0.010376	0.041046	-0.10346	-0.055237	-0.032043	-0.016937	0.062714	-0.001984	0.7402	0.30991	-0.002899	-0.015411
14.616	0.014954	0.06424	-0.03891	-0.006714	0.028076	-0.007019	-0.090332	-0.000763	0.037689	-0.08667	0.003204	0.007477	0.052032	-0.15701	0.005493	0.015717	0.006866	-0.053864	0.062866	-0.01297	0.005798	0.032501	-0.090942	0.04425	-0.048676	-0.009766	0.070343	-0.005493	-0.33478	0.057068	0.000305	-0.012817
14.617	0.000763	0.007782	-0.032349	0.001526	0.030212	0.010986	-0.078125	0.007477	0.039825	-0.06897	-0.027771	0.001678	0.037384	-0.11002	0.025787	0.00885	0.028229	-0.17242	0.99533	-0.086517	-0.005188	0.032501	0.29999	0.12726	0.017395	-0.008392	0.049133	-0.001373	-0.21408	0.034332	-0.003662	-0.005341
14.618	0.003815	0.004425	-0.043488	0.008087	0.010376	0.018158	-0.087433	0.003662	0.038757	-0.065155	-0.079193	0.001526	0.039825	-0.040741	0.034485	0.016479	0.025177	-0.18051	1.1967	-0.059814	0.001984	0.000153	0.47684	0.085297	0.12497	-0.012817	-0.025482	-0.001373	-0.052795	0.085754	-0.005798	-0.010681
14.619	0.016632	-0.032806	-0.063782	0.007782	0.006866	0.007172	-0.08728	0.002594	0.042267	-0.057831	-0.052643	0.002594	0.020447	-0.045471	0.033569	0.013733	0.019684	-0.23834	0.80337	-0.024261	0.016174	-0.00412	0.44052	-0.13275	0.004425	-0.008698	0.014496	-0.001221	0.84854	0.12604	-0.003357	-0.005341
14.62	0.010681	-0.031281	-0.037231	0.014038	0.000458	-0.013885	-0.081482	0.006561	0.038452	-0.055695	0.012054	0.005341	-0.001831	-0.02594	0.038757	0.020905	0.005341	-0.26566	-0.1889	-0.029449	0.020752	0.012817	0.30456	-0.10284	-0.070801	-0.010376	0.18341	-0.000763	0.49728	0.059357	-0.003662	-0.007782
14.621	0.073547	-0.020142	-0.030975	0.00885	-0.002747	0.005188	-0.085297	0.005646	0.027618	-0.059814	0.071411	0.000153	0.039215	-0.050812	-0.033569	0.024261	0.009308	-0.2121	-1.0547	0.015259	0.02655	0.009155	0.53497	-0.12924	-0.098724	-0.013275	0.45441	0.001221	-0.19196	-0.063324	-0.002747	-0.005341
14.622	-0.001221	-0.02594	-0.065155	0.000305	-0.014343	0.012207	-0.098572	0.003357	0.027008	-0.066376	0.13199	-0.008698	0.04303	-0.056	-0.025787	0.012207	0.006409	-0.24033	-0.41229	0.03479	0.019684	0.034943	0.3656	-0.11673	-0.26108	-0.006104	0.46539	0.001678	0.25589	-0.19516	-0.001831	0.000305
14.623	0.009003	-0.035553	-0.10346	0.004425	-0.028992	0.021057	-0.10269	0.005646	0.023193	-0.041199	0.017548	0.002136	0.06134	-0.036926	0.16617	0.016327	-0.020905	-0.2771	-0.62225	0.045929	0.024109	0.063324	0.18341	0.13397	-0.027313	-0.005798	0.4071	-0.001068	0.056305	-0.18448	-0.005798	-0.005798
14.624	-0.06485	-0.023956	-0.097351	-0.001678	-0.018921	0.014191	-0.090942	0.014496	0.021362	-0.026855	-0.050201	-0.003662	0.063782	-0.055237	0.11932	0.018616	0.005341	-0.23377	-0.1088	0.02594	-0.005493	0.059052	0.2243	0.18692	0.13763	0.003662	0.19424	0.007782	0.15167	-0.20905	-0.004272	-0.007019
14.625	0.006409	-0.041351	-0.10864	0.006104	0.028534	-0.001984	-0.085602	0.008698	0.027313	-0.028687	-0.084076	0.00351	0.046844	-0.061646	0.056152	0.016174	0.008545	-0.22446	-0.41916	0.10727	-0.010986	0.029755	0.26977	0.2626	0.071106	-0.001221	-0.7608	-0.000458	0.12344	-0.19943	-0.004425	-0.010223
14.626	0.007629	-0.055847	-0.05188	0.010071	0.018616	0.035706	-0.0914	-0.000305	0.021667	-0.063934	-0.068512	-0.00351	0.069275	-0.046387	-0.088806	0.02182	0.014343	-0.16419	0.19577	-0.007324	-0.031738	0.027618	0.12833	0.35111	0.1593	0.006714	-1.0408	-0.001221	-0.046692	-0.20355	-0.00061	-0.004272
14.627	0.022736	-0.061798	-0.059662	0.014038	0.015564	0.017395	-0.10727	0.002747	0.024872	-0.074463	-0.030365	-0.001831	0.058441	-0.028534	-0.08255	0.024567	-0.008392	-0.20264	0.13763	-0.1088	-0.00061	0.059814	-0.001984	0.44037	0.27573	0.001831	-0.34027	-0.001068	-0.24216	-0.22995	-0.001831	-0.012207
14.628	0.007172	-0.099487	-0.093079	0.000763	0.027618	0.036316	-0.099792	0.006256	0.014038	-0.057526	0.052643	-0.018311	0.032501	-0.053406	-0.042114	0.028534	-0.007782	-0.29175	0.1831	-0.11765	0.005188	0.038757	-0.12222	0.19806	0.14969	0.001831	-0.043488	0.006714	-0.066223	-0.090942	0.001984	0.001068
14.629	0.007782	-0.074158	-0.076599	-0.013123	0.017548	0.087585	-0.082703	-0.000305	0.012512	-0.038452	0.028534	-0.005798	0.04364	-0.059204	-0.092163	0.023346	-0.014954	-0.26855	0.34302	0.053253	0.010681	0.060883	-0.47394	0.14816	0.083618	-0.00061	0.29526	-0.007324	0.093842	0.00946	-0.00412	-0.009308
14.63	-0.002441	-0.012512	-0.053406	-0.000305	0.002136	0.1059	-0.072174	0.002899	0.017395	-0.036011	0.028229	-0.015106	0.018768	-0.073395	-0.12146	0.025024	-0.000916	-0.17502	-0.088196	0.13153	-0.003052	0.028839	-0.49774	0.1152	0.12573	-0.004883	0.88531	-0.001373	0.010223	0.031891	-0.000153	-0.006409
